<svg width="1440" height="1067" viewBox="0 0 1440 1067" fill="none" xmlns="http://www.w3.org/2000/svg">
<g opacity="0.2">
<line x1="151.23" y1="303.587" x2="1.2303" y2="229.587" stroke="#FF9413" stroke-width="8"/>
<line x1="149.44" y1="298.176" x2="233.44" y2="134.176" stroke="#FF9413" stroke-width="8"/>
<line x1="74.718" y1="51.3877" x2="238.718" y2="129.388" stroke="#FF9413" stroke-width="8"/>
<line x1="407.156" y1="85.8294" x2="238.156" y2="136.829" stroke="#FF9413" stroke-width="8"/>
<line x1="73.6292" y1="58.9502" x2="-39.3708" y2="76.9502" stroke="#FF9413" stroke-width="8"/>
<ellipse cx="152.5" cy="300" rx="26.5" ry="27" fill="#66EBE2"/>
<ellipse cx="2.5" cy="226" rx="26.5" ry="27" fill="#66EBE2"/>
<circle cx="406" cy="82" r="27" fill="#66EBE2"/>
<circle cx="73" cy="55" r="27" fill="#66EBE2"/>
<ellipse cx="236.5" cy="133" rx="26.5" ry="27" fill="#66EBE2"/>
</g>
<g opacity="0.2">
<rect x="1439" y="486" width="399.776" height="54" transform="rotate(-180 1439 486)" fill="#66EBE2"/>
<rect x="1439" y="423" width="308.364" height="53.9999" transform="rotate(-180 1439 423)" fill="#FF9413"/>
</g>
<g opacity="0.2">
<path d="M-116.5 934.194L138.5 756.694L379.5 808.194L623 722.694L868 774.194L1126.5 649.694L1339.5 594.5L1536.5 636" stroke="#F6951D" stroke-width="12"/>
<circle cx="138" cy="758.694" r="9" fill="#525867"/>
<circle cx="382" cy="807.694" r="9" fill="#525867"/>
<circle cx="626" cy="723.694" r="9" fill="#525867"/>
<circle cx="870" cy="773.694" r="9" fill="#525867"/>
<circle cx="1124" cy="651" r="9" fill="#525867"/>
<circle cx="1339" cy="595" r="9" fill="#525867"/>
<path d="M-132 833.694L136.5 700.194L381 864.194L626 798.194L868.5 717.694L1123.5 748.694L1339 702L1532 837" stroke="#00948B" stroke-width="12"/>
<circle cx="138" cy="701.694" r="9" fill="#525867"/>
<circle cx="382" cy="862.694" r="9" fill="#525867"/>
<circle cx="625" cy="798.694" r="9" fill="#525867"/>
<circle cx="870" cy="718.694" r="9" fill="#525867"/>
<circle cx="1124" cy="749" r="9" fill="#525867"/>
<circle cx="1339" cy="702" r="9" fill="#525867"/>
</g>
</svg>
