<svg width="1440" height="981" viewBox="0 0 1440 981" fill="none" xmlns="http://www.w3.org/2000/svg">
<g opacity="0.2">
<line x1="151.23" y1="303.587" x2="1.2303" y2="229.587" stroke="#FF9413" stroke-width="8"/>
<line x1="149.44" y1="298.176" x2="233.44" y2="134.176" stroke="#FF9413" stroke-width="8"/>
<line x1="74.718" y1="51.3877" x2="238.718" y2="129.388" stroke="#FF9413" stroke-width="8"/>
<line x1="407.156" y1="85.8294" x2="238.156" y2="136.829" stroke="#FF9413" stroke-width="8"/>
<line x1="73.6292" y1="58.9502" x2="-39.3708" y2="76.9502" stroke="#FF9413" stroke-width="8"/>
<ellipse cx="152.5" cy="300" rx="26.5" ry="27" fill="#66EBE2"/>
<ellipse cx="2.5" cy="226" rx="26.5" ry="27" fill="#66EBE2"/>
<circle cx="406" cy="82" r="27" fill="#66EBE2"/>
<circle cx="73" cy="55" r="27" fill="#66EBE2"/>
<ellipse cx="236.5" cy="133" rx="26.5" ry="27" fill="#66EBE2"/>
</g>
<g opacity="0.2">
<rect x="1465.04" y="421" width="519" height="60" transform="rotate(-180 1465.04 421)" fill="#66EBE2"/>
<rect x="1465.04" y="352" width="401" height="59.9999" transform="rotate(-180 1465.04 352)" fill="#FF9413"/>
</g>
<g opacity="0.2">
<path d="M-116.5 848.194L138.5 670.694L379.5 722.194L623 636.694L868 688.194L1126.5 563.694L1339.5 508.5L1536.5 550" stroke="#F6951D" stroke-width="12"/>
<circle cx="138" cy="672.694" r="9" fill="#525867"/>
<circle cx="382" cy="721.694" r="9" fill="#525867"/>
<circle cx="626" cy="637.694" r="9" fill="#525867"/>
<circle cx="870" cy="687.694" r="9" fill="#525867"/>
<circle cx="1124" cy="565" r="9" fill="#525867"/>
<circle cx="1339" cy="509" r="9" fill="#525867"/>
<path d="M-132 747.694L136.5 614.194L381 778.194L626 712.194L868.5 631.694L1123.5 662.694L1339 616L1532 751" stroke="#00948B" stroke-width="12"/>
<circle cx="138" cy="615.694" r="9" fill="#525867"/>
<circle cx="382" cy="776.694" r="9" fill="#525867"/>
<circle cx="625" cy="712.694" r="9" fill="#525867"/>
<circle cx="870" cy="632.694" r="9" fill="#525867"/>
<circle cx="1124" cy="663" r="9" fill="#525867"/>
<circle cx="1339" cy="616" r="9" fill="#525867"/>
</g>
</svg>
