<svg width="1440" height="563" viewBox="0 0 1440 563" fill="none" xmlns="http://www.w3.org/2000/svg">
<g opacity="0.2">
<path d="M-116.5 557.194L138.5 379.694L379.5 431.194L623 345.694L868 397.194L1126.5 272.694L1339.5 217.5L1536.5 259" stroke="#F6951D" stroke-width="12"/>
<circle cx="138" cy="381.694" r="9" fill="#525867"/>
<circle cx="382" cy="430.694" r="9" fill="#525867"/>
<circle cx="626" cy="346.694" r="9" fill="#525867"/>
<circle cx="870" cy="396.694" r="9" fill="#525867"/>
<circle cx="1124" cy="274" r="9" fill="#525867"/>
<circle cx="1339" cy="218" r="9" fill="#525867"/>
<path d="M-132 432.694L136.5 299.194L381 463.194L626 397.194L868.5 316.694L1123.5 347.694L1339 301L1532 436" stroke="#00948B" stroke-width="12"/>
<circle cx="138" cy="300.694" r="9" fill="#525867"/>
<circle cx="382" cy="461.694" r="9" fill="#525867"/>
<circle cx="625" cy="397.694" r="9" fill="#525867"/>
<circle cx="870" cy="317.694" r="9" fill="#525867"/>
<circle cx="1124" cy="348" r="9" fill="#525867"/>
<circle cx="1339" cy="301" r="9" fill="#525867"/>
</g>
</svg>
